<mxfile host="app.diagrams.net">
  <diagram name="Page-1" id="xJ06L7co0PYU5pPOg0rx">
    <mxGraphModel dx="1098" dy="565" grid="1" gridSize="10" guides="1" tooltips="1" connect="1" arrows="1" fold="1" page="1" pageScale="1" pageWidth="827" pageHeight="1169" math="0" shadow="0">
      <root>
        <mxCell id="0" parent="">
          <mxCell id="1" value="Python" style="rounded=1;whiteSpace=wrap;html=1;" vertex="1" parent="0">
            <mxGeometry x="100" y="100" width="80" height="40" as="geometry" />
          </mxCell>
          <mxCell id="2" value="PostgreSQL" style="rounded=1;whiteSpace=wrap;html=1;" vertex="1" parent="0">
            <mxGeometry x="300" y="100" width="100" height="40" as="geometry" />
          </mxCell>
          <mxCell id="3" edge="1" parent="0" source="1" target="2">
            <mxGeometry relative="1" as="geometry" />
          </mxCell>
        </mxCell>
      </root>
    </mxGraphModel>
  </diagram>
</mxfile>
